<svg version="1.2" xmlns="http://www.w3.org/2000/svg" viewBox="0 0 1574 366" width="1574" height="366">
	<title>rumble-full-logo-v4-svg</title>
	<style>
		.s0 { fill: #001122 } 
		.s1 { fill: #85c742 } 
	</style>
	<path id="Layer" fill-rule="evenodd" class="s0" d="m425.2 280.1v-92.3c0-61.3 43.7-90.7 95.6-90.7h25v47.4l-22 0.2c-14.6 0-25.9 4.3-34.1 12.6-8.1 8.2-12.1 20.9-12.1 37.8v85.1zm143-183.1h52.8v95.8c0 8.6 0.8 16 2.5 22 1.7 5.9 4.2 10.6 7.4 14.3 3.3 3.6 7.3 6 11.8 7.7 4.7 1.5 9.9 2.2 15.8 2.2q2 0 3.9-0.1 2-0.2 4-0.4 2-0.3 3.9-0.8 1.9-0.4 3.8-1c4.7-1.6 8.6-4 11.8-7.6 3.2-3.6 5.8-8.4 7.5-14.3 1.6-5.8 2.6-13.2 2.6-22v-95.7h52.8v97.4q0.1 5.4-0.2 10.9-0.4 5.4-1.3 10.7-0.8 5.4-2.2 10.7-1.4 5.2-3.2 10.3-1.5 4-3.5 7.8-1.9 3.8-4.3 7.4-2.4 3.6-5.1 6.8-2.8 3.3-5.9 6.2-3.1 2.7-6.5 5.1-3.4 2.4-7 4.4-3.7 1.9-7.5 3.5-3.8 1.6-7.8 2.7c-10.9 3.3-22.9 5-35.8 5-12.9 0-25-1.7-36-5q-3.9-1.1-7.7-2.7-3.8-1.6-7.5-3.5-3.6-2-7-4.4-3.3-2.4-6.4-5.1-3.2-2.9-5.9-6.2-2.8-3.2-5.2-6.8-2.4-3.5-4.4-7.4-1.9-3.8-3.4-7.8c-4.6-11.7-6.8-25.8-6.8-42.6zm323.8 84.5c-0.7-23.4-11.6-43.4-35.8-43.4-22.7 0-31.4 24.7-31.4 44.6v97.4h-52.8v-92.3c0-57.3 28.6-96.6 82.5-96.6 5.9-0.3 11.8 0.1 17.7 1 5.8 1 11.5 2.6 17 4.7 5.5 2.2 10.8 4.9 15.7 8.2 4.9 3.2 9.5 7 13.6 11.2 13.9-14.5 34.3-25.1 64.1-25.1 53.8 0 82.5 39.3 82.5 96.6v92.6h-52.8v-97.5c0-19.9-8.7-44.6-31.4-44.6-24.1 0-35.1 20-35.8 43.5v98.6h-53.1zm194.9-150.2h52.7v76.1q2.5-1.9 5.2-3.5 2.6-1.7 5.4-3.2 2.7-1.5 5.6-2.7 2.8-1.3 5.8-2.3c8.3-3.1 17.9-4.6 28.5-4.6q5.1-0.1 10.1 0.3 5 0.4 9.9 1.4 5 1 9.8 2.4 4.8 1.5 9.5 3.5 4.1 1.9 8.1 4.1 4 2.3 7.7 4.9 3.7 2.7 7.1 5.7 3.4 3.1 6.5 6.4 3.1 3.4 5.8 7.1 2.7 3.6 5 7.5 2.4 3.9 4.3 8 2 4.1 3.5 8.4 1.6 4.6 2.9 9.2 1.2 4.7 2 9.4 0.8 4.8 1.2 9.6 0.4 4.8 0.4 9.6 0 4.9-0.4 9.7-0.4 4.9-1.3 9.6-0.8 4.8-2.1 9.5-1.3 4.7-2.9 9.3-1.6 4.3-3.6 8.4-2 4.1-4.4 8-2.4 4-5.2 7.6-2.8 3.7-5.9 7.1-3.1 3.3-6.6 6.3-3.4 3-7.2 5.6-3.8 2.7-7.8 4.9-4 2.2-8.2 4-4.6 2-9.4 3.5-4.8 1.4-9.7 2.4-4.9 1-9.9 1.4-5 0.5-10 0.4c-63.4 0-102.4-37.7-102.4-103.7zm133.8 124.5c-2.8-3.7-6.2-7-10.1-9.6-3.8-2.7-8.1-4.7-12.5-6.1-4.5-1.3-9.2-2-13.9-2q-2.3 0-4.7 0.3-2.3 0.2-4.7 0.7-2.3 0.5-4.6 1.2-2.2 0.7-4.4 1.6-2.1 0.9-4.1 1.9-2 1.1-3.9 2.4-1.9 1.2-3.7 2.7-1.7 1.5-3.3 3.1-3.4 3.7-6 8-2.5 4.2-4.3 8.9-1.8 4.7-2.6 9.6-0.9 4.9-0.9 9.9 0 2.7 0.2 5.4 0.2 2.7 0.6 5.3 0.5 2.7 1.2 5.3 0.6 2.6 1.6 5.1 0.8 2.2 1.9 4.4 1.1 2.1 2.3 4.1 1.3 2.1 2.8 3.9 1.4 1.9 3.1 3.7 1.6 1.6 3.3 3.1 1.7 1.4 3.6 2.7 1.9 1.3 3.9 2.4 2 1.1 4.1 2 4.3 1.8 9 2.7 4.6 0.9 9.3 0.9 4.7 0 9.3-0.9 4.7-0.9 9-2.7 2.1-0.9 4.2-2 2-1.1 3.9-2.4 1.9-1.3 3.6-2.9 1.8-1.5 3.4-3.1 1.6-1.8 3.1-3.7 1.5-1.9 2.8-3.9 1.2-2 2.3-4.1 1.1-2.2 2-4.4c2.6-6.2 3.7-13.2 3.7-20.8 0-7.6-1.3-14.3-3.7-20.5-1.6-4.4-3.9-8.5-6.8-12.2zm83.1-124.5h52.9v248.9h-52.9zm80.1 119.6q1.7-4.3 3.9-8.5 2.1-4.1 4.6-8 2.6-3.9 5.5-7.5 2.9-3.7 6.1-7 3.3-3.4 7-6.4 3.6-3 7.5-5.6 4-2.6 8.1-4.9 4.2-2.2 8.5-4 18.2-7.7 39.9-7.7 5.1-0.1 10.2 0.3 5.1 0.5 10.1 1.5 5.1 1 10 2.4 4.9 1.5 9.6 3.5c5.8 2.4 11.4 5.3 16.6 8.8 5.2 3.4 10 7.4 14.4 11.9 4.4 4.4 8.4 9.3 11.8 14.6 3.5 5.2 6.3 10.8 8.7 16.6q1.8 4.5 3.2 9.1 1.4 4.7 2.3 9.4 0.9 4.8 1.3 9.6 0.5 4.8 0.4 9.7 0 1.9-0.1 3.8-0.1 1.9-0.3 3.8-0.1 1.9-0.3 3.8-0.3 1.9-0.6 3.8h-143.1q1 4 2.7 7.8 1.7 3.8 3.9 7.3 2.2 3.5 5 6.6 2.8 3.1 6 5.7 1.5 1.1 3.1 2.2 1.7 1.1 3.4 2 1.7 0.9 3.4 1.7 1.8 0.8 3.6 1.5 4.4 1.6 9.1 2.3 4.7 0.7 9.5 0.3 4.7-0.4 9.2-1.7 4.6-1.4 8.7-3.7c6.2-3.7 10.8-8.4 14-14h57q-1.1 3.2-2.3 6.3-1.3 3-2.8 6-1.5 3-3.2 5.8-1.8 2.9-3.7 5.6-2.1 2.9-4.3 5.7-2.3 2.7-4.8 5.3-2.5 2.5-5.1 4.9-2.7 2.4-5.6 4.5-3 2.4-6.3 4.4-3.3 2.1-6.7 3.9-3.4 1.8-7 3.4-3.5 1.5-7.2 2.8-4.1 1.4-8.3 2.5-4.2 1-8.4 1.7-4.3 0.7-8.6 1-4.3 0.3-8.7 0.3c-14.3 0-27.6-2.6-39.7-7.5q-4.3-1.9-8.4-4.1-4.2-2.3-8-5-3.9-2.6-7.5-5.7-3.7-3-6.9-6.4-3.3-3.3-6.2-6.9-3-3.6-5.6-7.5-2.5-3.9-4.7-8-2.2-4.1-4-8.4-1.8-4.5-3.1-9.2-1.3-4.6-2.2-9.4-0.9-4.7-1.3-9.6-0.5-4.8-0.4-9.6-0.1-4.9 0.4-9.7 0.4-4.8 1.3-9.5 0.9-4.8 2.3-9.4 1.3-4.6 3.1-9.1zm46.8 15h86.9c-3.3-9.3-8.6-16.8-15.6-22.5-7.2-6-16.1-8.9-26.8-8.9q-3.7-0.2-7.4 0.4-3.7 0.5-7.2 1.6-3.6 1.1-6.9 2.8-3.3 1.6-6.3 3.8c-7.7 5.8-13.2 13.4-16.7 22.8z"/>
	<path id="Layer" fill-rule="evenodd" class="s1" d="m308.6 124.4c7.4 8.1 13.2 17.5 17.2 27.7 4 10.3 6 21.1 6 32.1 0.1 11-1.9 21.8-5.9 32.1-3.9 10.2-9.7 19.6-17.1 27.7-13.2 14.6-27.4 28.1-42.6 40.5-15.2 12.5-31.3 23.8-48.1 33.8-16.9 10.1-34.5 18.9-52.6 26.4-18.2 7.4-36.8 13.5-55.9 18.2-9.7 2.5-19.8 3-29.8 1.6-9.9-1.4-19.4-4.7-28.1-9.7-8.7-5.1-16.3-11.7-22.4-19.6-6.2-7.9-10.7-17-13.4-26.6-23.2-79-19.8-168.3 2.5-247.7 11.8-41.6 51-67.8 91.4-58.2 74.9 17.9 145.1 63.7 198.8 121.7zm-105.4 82.1c14.1-11.2 14.1-32.9 0-44.4q-7.5-6.2-15.4-12-7.9-5.8-16.1-11-8.2-5.3-16.7-10.1-8.5-4.8-17.3-9c-16.2-7.8-34.3 3-36.9 21.4-4 28.2-4.7 56.6-2.1 83.6 1.7 18.7 19.6 29.8 36 22.7q9.2-4 18.1-8.5 9-4.6 17.6-9.8 8.5-5.1 16.8-10.8 8.2-5.8 16-12z"/>
</svg>